<svg id="visual" viewBox="0 0 900 600" width="900" height="600" xmlns="http://www.w3.org/2000/svg" xmlns:xlink="http://www.w3.org/1999/xlink" version="1.1"><rect x="0" y="0" width="900" height="600" fill="#11111B"></rect><defs><linearGradient id="grad1_0" x1="33.3%" y1="100%" x2="100%" y2="0%"><stop offset="20%" stop-color="#cba6f7" stop-opacity="1"></stop><stop offset="80%" stop-color="#cba6f7" stop-opacity="1"></stop></linearGradient></defs><defs><linearGradient id="grad1_1" x1="33.3%" y1="100%" x2="100%" y2="0%"><stop offset="20%" stop-color="#cba6f7" stop-opacity="1"></stop><stop offset="80%" stop-color="#927ebc" stop-opacity="1"></stop></linearGradient></defs><defs><linearGradient id="grad1_2" x1="33.3%" y1="100%" x2="100%" y2="0%"><stop offset="20%" stop-color="#605883" stop-opacity="1"></stop><stop offset="80%" stop-color="#927ebc" stop-opacity="1"></stop></linearGradient></defs><defs><linearGradient id="grad1_3" x1="33.3%" y1="100%" x2="100%" y2="0%"><stop offset="20%" stop-color="#605883" stop-opacity="1"></stop><stop offset="80%" stop-color="#34334c" stop-opacity="1"></stop></linearGradient></defs><defs><linearGradient id="grad1_4" x1="33.3%" y1="100%" x2="100%" y2="0%"><stop offset="20%" stop-color="#11111b" stop-opacity="1"></stop><stop offset="80%" stop-color="#34334c" stop-opacity="1"></stop></linearGradient></defs><defs><linearGradient id="grad2_0" x1="0%" y1="100%" x2="66.7%" y2="0%"><stop offset="20%" stop-color="#cba6f7" stop-opacity="1"></stop><stop offset="80%" stop-color="#cba6f7" stop-opacity="1"></stop></linearGradient></defs><defs><linearGradient id="grad2_1" x1="0%" y1="100%" x2="66.7%" y2="0%"><stop offset="20%" stop-color="#927ebc" stop-opacity="1"></stop><stop offset="80%" stop-color="#cba6f7" stop-opacity="1"></stop></linearGradient></defs><defs><linearGradient id="grad2_2" x1="0%" y1="100%" x2="66.7%" y2="0%"><stop offset="20%" stop-color="#927ebc" stop-opacity="1"></stop><stop offset="80%" stop-color="#605883" stop-opacity="1"></stop></linearGradient></defs><defs><linearGradient id="grad2_3" x1="0%" y1="100%" x2="66.7%" y2="0%"><stop offset="20%" stop-color="#34334c" stop-opacity="1"></stop><stop offset="80%" stop-color="#605883" stop-opacity="1"></stop></linearGradient></defs><defs><linearGradient id="grad2_4" x1="0%" y1="100%" x2="66.7%" y2="0%"><stop offset="20%" stop-color="#34334c" stop-opacity="1"></stop><stop offset="80%" stop-color="#11111b" stop-opacity="1"></stop></linearGradient></defs><g transform="translate(900, 600)"><path d="M-270.4 0C-251 -26.6 -231.7 -53.2 -223.6 -92.6C-215.5 -132 -218.7 -184.3 -191.2 -191.2C-163.7 -198.1 -105.5 -159.7 -68.5 -165.4C-31.5 -171 -15.8 -220.7 0 -270.4L0 0Z" fill="#222233"></path><path d="M-216.3 0C-200.8 -21.3 -185.3 -42.5 -178.9 -74.1C-172.4 -105.6 -175 -147.4 -153 -153C-131 -158.5 -84.4 -127.8 -54.8 -132.3C-25.2 -136.8 -12.6 -176.6 0 -216.3L0 0Z" fill="#494567"></path><path d="M-162.2 0C-150.6 -16 -139 -31.9 -134.1 -55.6C-129.3 -79.2 -131.2 -110.6 -114.7 -114.7C-98.2 -118.9 -63.3 -95.8 -41.1 -99.2C-18.9 -102.6 -9.5 -132.4 0 -162.2L0 0Z" fill="#786b9f"></path><path d="M-108.2 0C-100.4 -10.6 -92.7 -21.3 -89.4 -37C-86.2 -52.8 -87.5 -73.7 -76.5 -76.5C-65.5 -79.3 -42.2 -63.9 -27.4 -66.1C-12.6 -68.4 -6.3 -88.3 0 -108.2L0 0Z" fill="#ae92d9"></path><path d="M-54.1 0C-50.2 -5.3 -46.3 -10.6 -44.7 -18.5C-43.1 -26.4 -43.7 -36.9 -38.2 -38.2C-32.7 -39.6 -21.1 -31.9 -13.7 -33.1C-6.3 -34.2 -3.2 -44.1 0 -54.1L0 0Z" fill="#cba6f7"></path></g><g transform="translate(0, 0)"><path d="M270.4 0C273.8 42.4 277.3 84.9 249.8 103.5C222.4 122.1 164.1 116.8 136.5 136.5C108.8 156.2 111.8 200.8 94.1 227.3C76.5 253.8 38.2 262.1 0 270.4L0 0Z" fill="#222233"></path><path d="M216.3 0C219.1 34 221.8 67.9 199.9 82.8C177.9 97.7 131.3 93.4 109.2 109.2C87.1 124.9 89.4 160.6 75.3 181.8C61.2 203 30.6 209.7 0 216.3L0 0Z" fill="#494567"></path><path d="M162.2 0C164.3 25.5 166.4 50.9 149.9 62.1C133.4 73.2 98.5 70.1 81.9 81.9C65.3 93.7 67.1 120.5 56.5 136.4C45.9 152.3 22.9 157.3 0 162.2L0 0Z" fill="#786b9f"></path><path d="M108.2 0C109.5 17 110.9 34 99.9 41.4C89 48.8 65.7 46.7 54.6 54.6C43.5 62.5 44.7 80.3 37.7 90.9C30.6 101.5 15.3 104.8 0 108.2L0 0Z" fill="#ae92d9"></path><path d="M54.1 0C54.8 8.5 55.5 17 50 20.7C44.5 24.4 32.8 23.4 27.3 27.3C21.8 31.2 22.4 40.2 18.8 45.5C15.3 50.8 7.6 52.4 0 54.1L0 0Z" fill="#cba6f7"></path></g></svg>